<svg xmlns="http://www.w3.org/2000/svg" xmlns:xlink="http://www.w3.org/1999/xlink" width="427" zoomAndPan="magnify" viewBox="0 0 320.25 48" height="64" preserveAspectRatio="xMidYMid meet" version="1.0"><defs><g/><clipPath id="b4f9054949"><path d="M 4 0.46875 L 33 0.46875 L 33 45 L 4 45 Z M 4 0.46875 " clip-rule="nonzero"/></clipPath><clipPath id="635e45ac6e"><path d="M 27 30 L 37.691406 30 L 37.691406 46.019531 L 27 46.019531 Z M 27 30 " clip-rule="nonzero"/></clipPath></defs><g fill="#4fb6a9" fill-opacity="1"><g transform="translate(52.704587, 17.514794)"><g><path d="M 10.65625 -9.8125 L 6.9375 -9.8125 L 6.9375 0 L 3.8125 0 L 3.8125 -9.8125 L 0.125 -9.8125 L 0.125 -12.359375 L 10.65625 -12.359375 Z M 10.65625 -9.8125 "/></g></g></g><g fill="#4fb6a9" fill-opacity="1"><g transform="translate(63.12545, 17.514794)"><g><path d="M 9.421875 -2.28125 L 4.03125 -2.28125 L 3.140625 0 L -0.09375 0 L 5.234375 -12.34375 L 8.453125 -12.34375 L 13.65625 0 L 10.3125 0 Z M 8.515625 -4.65625 L 6.75 -9.21875 L 4.953125 -4.65625 Z M 8.515625 -4.65625 "/></g></g></g><g fill="#4fb6a9" fill-opacity="1"><g transform="translate(76.349903, 17.514794)"><g><path d="M 9.421875 -6.28125 L 12.140625 -6.28125 L 12.140625 -1.46875 C 11.472656 -1 10.664062 -0.613281 9.71875 -0.3125 C 8.769531 -0.0078125 7.867188 0.140625 7.015625 0.140625 C 5.128906 0.140625 3.554688 -0.457031 2.296875 -1.65625 C 1.046875 -2.863281 0.421875 -4.367188 0.421875 -6.171875 C 0.421875 -7.953125 1.066406 -9.441406 2.359375 -10.640625 C 3.648438 -11.835938 5.269531 -12.4375 7.21875 -12.4375 C 8.132812 -12.4375 9.046875 -12.269531 9.953125 -11.9375 C 10.859375 -11.613281 11.628906 -11.171875 12.265625 -10.609375 L 10.5 -8.484375 C 10.050781 -8.890625 9.535156 -9.210938 8.953125 -9.453125 C 8.367188 -9.691406 7.785156 -9.8125 7.203125 -9.8125 C 6.191406 -9.8125 5.34375 -9.460938 4.65625 -8.765625 C 3.96875 -8.066406 3.625 -7.203125 3.625 -6.171875 C 3.625 -5.117188 3.96875 -4.238281 4.65625 -3.53125 C 5.351562 -2.832031 6.21875 -2.484375 7.25 -2.484375 C 7.90625 -2.484375 8.628906 -2.679688 9.421875 -3.078125 Z M 9.421875 -6.28125 "/></g></g></g><g fill="#4fb6a9" fill-opacity="1"><g transform="translate(89.098278, 17.514794)"><g><path d="M 10.890625 -9.875 L 4.375 -9.875 L 4.375 -7.421875 L 10.25 -7.421875 L 10.25 -4.953125 L 4.375 -4.953125 L 4.375 -2.46875 L 11.09375 -2.46875 L 11.09375 0 L 1.234375 0 L 1.234375 -12.34375 L 10.890625 -12.34375 Z M 10.890625 -9.875 "/></g></g></g><g fill="#4fb6a9" fill-opacity="1"><g transform="translate(100.629992, 17.514794)"><g/></g></g><g fill="#4fb6a9" fill-opacity="1"><g transform="translate(104.368096, 17.514794)"><g><path d="M 1.234375 -12.34375 L 7.0625 -12.34375 C 8.445312 -12.34375 9.546875 -12.0625 10.359375 -11.5 C 11.179688 -10.9375 11.59375 -10.1875 11.59375 -9.25 C 11.59375 -8.601562 11.40625 -8.035156 11.03125 -7.546875 C 10.65625 -7.066406 10.140625 -6.726562 9.484375 -6.53125 C 10.253906 -6.382812 10.867188 -6.03125 11.328125 -5.46875 C 11.785156 -4.90625 12.015625 -4.222656 12.015625 -3.421875 C 12.015625 -2.367188 11.585938 -1.535156 10.734375 -0.921875 C 9.890625 -0.304688 8.738281 0 7.28125 0 L 1.234375 0 Z M 4.359375 -9.9375 L 4.359375 -7.40625 L 6.890625 -7.40625 C 7.347656 -7.40625 7.710938 -7.519531 7.984375 -7.75 C 8.253906 -7.976562 8.390625 -8.289062 8.390625 -8.6875 C 8.390625 -9.070312 8.253906 -9.375 7.984375 -9.59375 C 7.710938 -9.820312 7.347656 -9.9375 6.890625 -9.9375 Z M 4.359375 -5.140625 L 4.359375 -2.421875 L 6.890625 -2.421875 C 7.472656 -2.421875 7.929688 -2.539062 8.265625 -2.78125 C 8.609375 -3.03125 8.78125 -3.375 8.78125 -3.8125 C 8.78125 -4.21875 8.609375 -4.539062 8.265625 -4.78125 C 7.929688 -5.019531 7.472656 -5.140625 6.890625 -5.140625 Z M 4.359375 -5.140625 "/></g></g></g><g fill="#4fb6a9" fill-opacity="1"><g transform="translate(116.622745, 17.514794)"><g><path d="M 4.375 0 L 1.234375 0 L 1.234375 -12.34375 L 4.375 -12.34375 Z M 4.375 0 "/></g></g></g><g fill="#4fb6a9" fill-opacity="1"><g transform="translate(121.877253, 17.514794)"><g><path d="M 5.96875 -12.484375 C 7.8125 -12.484375 9.4375 -12.023438 10.84375 -11.109375 L 9.65625 -8.65625 C 9.007812 -9.03125 8.316406 -9.335938 7.578125 -9.578125 C 6.835938 -9.816406 6.210938 -9.9375 5.703125 -9.9375 C 4.804688 -9.9375 4.359375 -9.640625 4.359375 -9.046875 C 4.359375 -8.648438 4.578125 -8.332031 5.015625 -8.09375 C 5.460938 -7.863281 6.003906 -7.664062 6.640625 -7.5 C 7.285156 -7.332031 7.925781 -7.125 8.5625 -6.875 C 9.207031 -6.632812 9.753906 -6.242188 10.203125 -5.703125 C 10.648438 -5.171875 10.875 -4.492188 10.875 -3.671875 C 10.875 -2.484375 10.410156 -1.554688 9.484375 -0.890625 C 8.554688 -0.222656 7.375 0.109375 5.9375 0.109375 C 4.914062 0.109375 3.90625 -0.0664062 2.90625 -0.421875 C 1.90625 -0.773438 1.035156 -1.257812 0.296875 -1.875 L 1.515625 -4.28125 C 2.140625 -3.738281 2.875 -3.296875 3.71875 -2.953125 C 4.5625 -2.609375 5.3125 -2.4375 5.96875 -2.4375 C 6.476562 -2.4375 6.875 -2.523438 7.15625 -2.703125 C 7.4375 -2.890625 7.578125 -3.15625 7.578125 -3.5 C 7.578125 -3.84375 7.414062 -4.128906 7.09375 -4.359375 C 6.769531 -4.585938 6.367188 -4.757812 5.890625 -4.875 C 5.410156 -4.988281 4.882812 -5.140625 4.3125 -5.328125 C 3.75 -5.515625 3.226562 -5.71875 2.75 -5.9375 C 2.269531 -6.164062 1.867188 -6.519531 1.546875 -7 C 1.222656 -7.488281 1.0625 -8.078125 1.0625 -8.765625 C 1.0625 -9.890625 1.507812 -10.789062 2.40625 -11.46875 C 3.300781 -12.144531 4.488281 -12.484375 5.96875 -12.484375 Z M 5.96875 -12.484375 "/></g></g></g><g fill="#4fb6a9" fill-opacity="1"><g transform="translate(132.879988, 17.514794)"><g/></g></g><g fill="#4fb6a9" fill-opacity="1"><g transform="translate(136.618091, 17.514794)"><g><path d="M 1.234375 -12.34375 L 6.53125 -12.34375 C 8.476562 -12.34375 10.054688 -11.769531 11.265625 -10.625 C 12.484375 -9.488281 13.09375 -8.003906 13.09375 -6.171875 C 13.09375 -4.347656 12.472656 -2.863281 11.234375 -1.71875 C 10.003906 -0.570312 8.398438 0 6.421875 0 L 1.234375 0 Z M 4.375 -9.828125 L 4.375 -2.5 L 6.609375 -2.5 C 7.566406 -2.5 8.351562 -2.835938 8.96875 -3.515625 C 9.59375 -4.191406 9.90625 -5.066406 9.90625 -6.140625 C 9.90625 -7.222656 9.582031 -8.109375 8.9375 -8.796875 C 8.289062 -9.484375 7.46875 -9.828125 6.46875 -9.828125 Z M 4.375 -9.828125 "/></g></g></g><g fill="#4fb6a9" fill-opacity="1"><g transform="translate(149.789644, 17.514794)"><g><path d="M 12.34375 -12.34375 L 12.34375 -5.1875 C 12.34375 -3.550781 11.835938 -2.253906 10.828125 -1.296875 C 9.816406 -0.335938 8.445312 0.140625 6.71875 0.140625 C 4.976562 0.140625 3.59375 -0.335938 2.5625 -1.296875 C 1.53125 -2.253906 1.015625 -3.550781 1.015625 -5.1875 L 1.015625 -12.34375 L 4.15625 -12.34375 L 4.15625 -5.1875 C 4.15625 -4.363281 4.394531 -3.707031 4.875 -3.21875 C 5.351562 -2.726562 5.972656 -2.484375 6.734375 -2.484375 C 7.484375 -2.484375 8.082031 -2.722656 8.53125 -3.203125 C 8.988281 -3.691406 9.21875 -4.351562 9.21875 -5.1875 L 9.21875 -12.34375 Z M 12.34375 -12.34375 "/></g></g></g><g fill="#4fb6a9" fill-opacity="1"><g transform="translate(162.802502, 17.514794)"><g/></g></g><g fill="#4fb6a9" fill-opacity="1"><g transform="translate(166.540611, 17.514794)"><g><path d="M 1.234375 -12.34375 L 6.53125 -12.34375 C 8.476562 -12.34375 10.054688 -11.769531 11.265625 -10.625 C 12.484375 -9.488281 13.09375 -8.003906 13.09375 -6.171875 C 13.09375 -4.347656 12.472656 -2.863281 11.234375 -1.71875 C 10.003906 -0.570312 8.398438 0 6.421875 0 L 1.234375 0 Z M 4.375 -9.828125 L 4.375 -2.5 L 6.609375 -2.5 C 7.566406 -2.5 8.351562 -2.835938 8.96875 -3.515625 C 9.59375 -4.191406 9.90625 -5.066406 9.90625 -6.140625 C 9.90625 -7.222656 9.582031 -8.109375 8.9375 -8.796875 C 8.289062 -9.484375 7.46875 -9.828125 6.46875 -9.828125 Z M 4.375 -9.828125 "/></g></g></g><g fill="#4fb6a9" fill-opacity="1"><g transform="translate(179.712164, 17.514794)"><g><path d="M 10.890625 -9.875 L 4.375 -9.875 L 4.375 -7.421875 L 10.25 -7.421875 L 10.25 -4.953125 L 4.375 -4.953125 L 4.375 -2.46875 L 11.09375 -2.46875 L 11.09375 0 L 1.234375 0 L 1.234375 -12.34375 L 10.890625 -12.34375 Z M 10.890625 -9.875 "/></g></g></g><g fill="#4fb6a9" fill-opacity="1"><g transform="translate(191.243884, 17.514794)"><g><path d="M 4.375 0 L 1.234375 0 L 1.234375 -12.34375 L 4.375 -12.34375 Z M 4.375 0 "/></g></g></g><g fill="#4fb6a9" fill-opacity="1"><g transform="translate(196.498398, 17.514794)"><g><path d="M 12.625 0 L 9.859375 0 L 4.171875 -7.59375 L 4.171875 0 L 1.234375 0 L 1.234375 -12.34375 L 4 -12.34375 L 9.6875 -4.71875 L 9.6875 -12.34375 L 12.625 -12.34375 Z M 12.625 0 "/></g></g></g><g fill="#4fb6a9" fill-opacity="1"><g transform="translate(210.004968, 17.514794)"><g/></g></g><g fill="#4fb6a9" fill-opacity="1"><g transform="translate(213.743077, 17.514794)"><g><path d="M 11.28125 -10.328125 L 4.6875 -2.484375 L 11.390625 -2.484375 L 11.390625 0 L 0.5 0 L 0.5 -2.015625 L 7.109375 -9.859375 L 0.71875 -9.859375 L 0.71875 -12.34375 L 11.28125 -12.34375 Z M 11.28125 -10.328125 "/></g></g></g><g fill="#4fb6a9" fill-opacity="1"><g transform="translate(225.292431, 17.514794)"><g><path d="M 4.375 0 L 1.234375 0 L 1.234375 -12.34375 L 4.375 -12.34375 Z M 4.375 0 "/></g></g></g><g fill="#4fb6a9" fill-opacity="1"><g transform="translate(230.546945, 17.514794)"><g><path d="M 10.890625 -9.875 L 4.375 -9.875 L 4.375 -7.421875 L 10.25 -7.421875 L 10.25 -4.953125 L 4.375 -4.953125 L 4.375 -2.46875 L 11.09375 -2.46875 L 11.09375 0 L 1.234375 0 L 1.234375 -12.34375 L 10.890625 -12.34375 Z M 10.890625 -9.875 "/></g></g></g><g fill="#4fb6a9" fill-opacity="1"><g transform="translate(242.078655, 17.514794)"><g><path d="M 4.375 -2.625 L 9.609375 -2.625 L 9.609375 0 L 1.234375 0 L 1.234375 -12.34375 L 4.375 -12.34375 Z M 4.375 -2.625 "/></g></g></g><g fill="#4fb6a9" fill-opacity="1"><g transform="translate(52.704587, 36.616834)"><g><path d="M 10.890625 -9.875 L 4.375 -9.875 L 4.375 -7.421875 L 10.25 -7.421875 L 10.25 -4.953125 L 4.375 -4.953125 L 4.375 -2.46875 L 11.09375 -2.46875 L 11.09375 0 L 1.234375 0 L 1.234375 -12.34375 L 10.890625 -12.34375 Z M 10.890625 -9.875 "/></g></g></g><g fill="#4fb6a9" fill-opacity="1"><g transform="translate(64.236303, 36.616834)"><g><path d="M 8.671875 0 L 6.84375 -3.46875 L 4.375 -3.46875 L 4.375 0 L 1.234375 0 L 1.234375 -12.34375 L 6.75 -12.34375 C 8.382812 -12.34375 9.644531 -11.96875 10.53125 -11.21875 C 11.425781 -10.46875 11.875 -9.40625 11.875 -8.03125 C 11.875 -6.132812 11.128906 -4.816406 9.640625 -4.078125 L 12.234375 0 Z M 4.375 -5.9375 L 6.75 -5.9375 C 7.425781 -5.9375 7.953125 -6.109375 8.328125 -6.453125 C 8.710938 -6.796875 8.90625 -7.289062 8.90625 -7.9375 C 8.90625 -8.570312 8.710938 -9.050781 8.328125 -9.375 C 7.953125 -9.707031 7.425781 -9.875 6.75 -9.875 L 4.375 -9.875 Z M 4.375 -5.9375 "/></g></g></g><g fill="#4fb6a9" fill-opacity="1"><g transform="translate(76.649651, 36.616834)"><g><path d="M 8.671875 0 L 6.84375 -3.46875 L 4.375 -3.46875 L 4.375 0 L 1.234375 0 L 1.234375 -12.34375 L 6.75 -12.34375 C 8.382812 -12.34375 9.644531 -11.96875 10.53125 -11.21875 C 11.425781 -10.46875 11.875 -9.40625 11.875 -8.03125 C 11.875 -6.132812 11.128906 -4.816406 9.640625 -4.078125 L 12.234375 0 Z M 4.375 -5.9375 L 6.75 -5.9375 C 7.425781 -5.9375 7.953125 -6.109375 8.328125 -6.453125 C 8.710938 -6.796875 8.90625 -7.289062 8.90625 -7.9375 C 8.90625 -8.570312 8.710938 -9.050781 8.328125 -9.375 C 7.953125 -9.707031 7.425781 -9.875 6.75 -9.875 L 4.375 -9.875 Z M 4.375 -5.9375 "/></g></g></g><g fill="#4fb6a9" fill-opacity="1"><g transform="translate(89.062999, 36.616834)"><g><path d="M 10.890625 -9.875 L 4.375 -9.875 L 4.375 -7.421875 L 10.25 -7.421875 L 10.25 -4.953125 L 4.375 -4.953125 L 4.375 -2.46875 L 11.09375 -2.46875 L 11.09375 0 L 1.234375 0 L 1.234375 -12.34375 L 10.890625 -12.34375 Z M 10.890625 -9.875 "/></g></g></g><g fill="#4fb6a9" fill-opacity="1"><g transform="translate(100.594714, 36.616834)"><g><path d="M 4.375 0 L 1.234375 0 L 1.234375 -12.34375 L 4.375 -12.34375 Z M 4.375 0 "/></g></g></g><g fill="#4fb6a9" fill-opacity="1"><g transform="translate(105.849223, 36.616834)"><g><path d="M 7.015625 -12.4375 C 7.929688 -12.4375 8.832031 -12.25 9.71875 -11.875 C 10.601562 -11.5 11.359375 -10.992188 11.984375 -10.359375 L 10.171875 -8.21875 C 9.773438 -8.707031 9.296875 -9.09375 8.734375 -9.375 C 8.171875 -9.664062 7.613281 -9.8125 7.0625 -9.8125 C 6.09375 -9.8125 5.273438 -9.46875 4.609375 -8.78125 C 3.953125 -8.09375 3.625 -7.242188 3.625 -6.234375 C 3.625 -5.203125 3.953125 -4.335938 4.609375 -3.640625 C 5.273438 -2.953125 6.09375 -2.609375 7.0625 -2.609375 C 7.582031 -2.609375 8.117188 -2.738281 8.671875 -3 C 9.234375 -3.257812 9.734375 -3.609375 10.171875 -4.046875 L 12 -2.109375 C 11.332031 -1.429688 10.539062 -0.882812 9.625 -0.46875 C 8.71875 -0.0625 7.8125 0.140625 6.90625 0.140625 C 5.050781 0.140625 3.503906 -0.460938 2.265625 -1.671875 C 1.035156 -2.878906 0.421875 -4.390625 0.421875 -6.203125 C 0.421875 -7.972656 1.046875 -9.453125 2.296875 -10.640625 C 3.554688 -11.835938 5.128906 -12.4375 7.015625 -12.4375 Z M 7.015625 -12.4375 "/></g></g></g><g fill="#4fb6a9" fill-opacity="1"><g transform="translate(117.69833, 36.616834)"><g><path d="M 12.625 0 L 9.484375 0 L 9.484375 -4.796875 L 4.375 -4.796875 L 4.375 0 L 1.234375 0 L 1.234375 -12.34375 L 4.375 -12.34375 L 4.375 -7.265625 L 9.484375 -7.265625 L 9.484375 -12.34375 L 12.625 -12.34375 Z M 12.625 0 "/></g></g></g><g fill="#4fb6a9" fill-opacity="1"><g transform="translate(131.204893, 36.616834)"><g><path d="M 10.65625 -9.8125 L 6.9375 -9.8125 L 6.9375 0 L 3.8125 0 L 3.8125 -9.8125 L 0.125 -9.8125 L 0.125 -12.359375 L 10.65625 -12.359375 Z M 10.65625 -9.8125 "/></g></g></g><g fill="#4fb6a9" fill-opacity="1"><g transform="translate(141.625756, 36.616834)"><g/></g></g><g fill="#4fb6a9" fill-opacity="1"><g transform="translate(145.36386, 36.616834)"><g><path d="M 12.625 0 L 9.484375 0 L 9.484375 -4.796875 L 4.375 -4.796875 L 4.375 0 L 1.234375 0 L 1.234375 -12.34375 L 4.375 -12.34375 L 4.375 -7.265625 L 9.484375 -7.265625 L 9.484375 -12.34375 L 12.625 -12.34375 Z M 12.625 0 "/></g></g></g><g fill="#4fb6a9" fill-opacity="1"><g transform="translate(158.870429, 36.616834)"><g><path d="M 9.421875 -2.28125 L 4.03125 -2.28125 L 3.140625 0 L -0.09375 0 L 5.234375 -12.34375 L 8.453125 -12.34375 L 13.65625 0 L 10.3125 0 Z M 8.515625 -4.65625 L 6.75 -9.21875 L 4.953125 -4.65625 Z M 8.515625 -4.65625 "/></g></g></g><g fill="#4fb6a9" fill-opacity="1"><g transform="translate(172.094884, 36.616834)"><g><path d="M 1.234375 -12.34375 L 7.0625 -12.34375 C 8.445312 -12.34375 9.546875 -12.0625 10.359375 -11.5 C 11.179688 -10.9375 11.59375 -10.1875 11.59375 -9.25 C 11.59375 -8.601562 11.40625 -8.035156 11.03125 -7.546875 C 10.65625 -7.066406 10.140625 -6.726562 9.484375 -6.53125 C 10.253906 -6.382812 10.867188 -6.03125 11.328125 -5.46875 C 11.785156 -4.90625 12.015625 -4.222656 12.015625 -3.421875 C 12.015625 -2.367188 11.585938 -1.535156 10.734375 -0.921875 C 9.890625 -0.304688 8.738281 0 7.28125 0 L 1.234375 0 Z M 4.359375 -9.9375 L 4.359375 -7.40625 L 6.890625 -7.40625 C 7.347656 -7.40625 7.710938 -7.519531 7.984375 -7.75 C 8.253906 -7.976562 8.390625 -8.289062 8.390625 -8.6875 C 8.390625 -9.070312 8.253906 -9.375 7.984375 -9.59375 C 7.710938 -9.820312 7.347656 -9.9375 6.890625 -9.9375 Z M 4.359375 -5.140625 L 4.359375 -2.421875 L 6.890625 -2.421875 C 7.472656 -2.421875 7.929688 -2.539062 8.265625 -2.78125 C 8.609375 -3.03125 8.78125 -3.375 8.78125 -3.8125 C 8.78125 -4.21875 8.609375 -4.539062 8.265625 -4.78125 C 7.929688 -5.019531 7.472656 -5.140625 6.890625 -5.140625 Z M 4.359375 -5.140625 "/></g></g></g><g fill="#4fb6a9" fill-opacity="1"><g transform="translate(184.349539, 36.616834)"><g><path d="M 10.890625 -9.875 L 4.375 -9.875 L 4.375 -7.421875 L 10.25 -7.421875 L 10.25 -4.953125 L 4.375 -4.953125 L 4.375 -2.46875 L 11.09375 -2.46875 L 11.09375 0 L 1.234375 0 L 1.234375 -12.34375 L 10.890625 -12.34375 Z M 10.890625 -9.875 "/></g></g></g><g fill="#4fb6a9" fill-opacity="1"><g transform="translate(195.881259, 36.616834)"><g><path d="M 12.625 0 L 9.859375 0 L 4.171875 -7.59375 L 4.171875 0 L 1.234375 0 L 1.234375 -12.34375 L 4 -12.34375 L 9.6875 -4.71875 L 9.6875 -12.34375 L 12.625 -12.34375 Z M 12.625 0 "/></g></g></g><g fill="#4fb6a9" fill-opacity="1"><g transform="translate(209.387829, 36.616834)"><g/></g></g><g fill="#4fb6a9" fill-opacity="1"><g transform="translate(213.125938, 36.616834)"><g><path d="M 15.109375 0 L 11.875 0 L 9.59375 -8.53125 L 7.265625 0 L 4.015625 0 L -0.015625 -12.34375 L 3.328125 -12.34375 L 5.75 -3.265625 L 8.109375 -12.34375 L 11.171875 -12.34375 L 13.59375 -3.265625 L 15.96875 -12.34375 L 19.171875 -12.34375 Z M 15.109375 0 "/></g></g></g><g fill="#4fb6a9" fill-opacity="1"><g transform="translate(231.834129, 36.616834)"><g><path d="M 4.375 0 L 1.234375 0 L 1.234375 -12.34375 L 4.375 -12.34375 Z M 4.375 0 "/></g></g></g><g fill="#4fb6a9" fill-opacity="1"><g transform="translate(237.088643, 36.616834)"><g><path d="M 4.375 -2.625 L 9.609375 -2.625 L 9.609375 0 L 1.234375 0 L 1.234375 -12.34375 L 4.375 -12.34375 Z M 4.375 -2.625 "/></g></g></g><g fill="#4fb6a9" fill-opacity="1"><g transform="translate(246.610247, 36.616834)"><g><path d="M 4.375 -2.625 L 9.609375 -2.625 L 9.609375 0 L 1.234375 0 L 1.234375 -12.34375 L 4.375 -12.34375 Z M 4.375 -2.625 "/></g></g></g><g fill="#4fb6a9" fill-opacity="1"><g transform="translate(256.13185, 36.616834)"><g><path d="M 5.96875 -12.484375 C 7.8125 -12.484375 9.4375 -12.023438 10.84375 -11.109375 L 9.65625 -8.65625 C 9.007812 -9.03125 8.316406 -9.335938 7.578125 -9.578125 C 6.835938 -9.816406 6.210938 -9.9375 5.703125 -9.9375 C 4.804688 -9.9375 4.359375 -9.640625 4.359375 -9.046875 C 4.359375 -8.648438 4.578125 -8.332031 5.015625 -8.09375 C 5.460938 -7.863281 6.003906 -7.664062 6.640625 -7.5 C 7.285156 -7.332031 7.925781 -7.125 8.5625 -6.875 C 9.207031 -6.632812 9.753906 -6.242188 10.203125 -5.703125 C 10.648438 -5.171875 10.875 -4.492188 10.875 -3.671875 C 10.875 -2.484375 10.410156 -1.554688 9.484375 -0.890625 C 8.554688 -0.222656 7.375 0.109375 5.9375 0.109375 C 4.914062 0.109375 3.90625 -0.0664062 2.90625 -0.421875 C 1.90625 -0.773438 1.035156 -1.257812 0.296875 -1.875 L 1.515625 -4.28125 C 2.140625 -3.738281 2.875 -3.296875 3.71875 -2.953125 C 4.5625 -2.609375 5.3125 -2.4375 5.96875 -2.4375 C 6.476562 -2.4375 6.875 -2.523438 7.15625 -2.703125 C 7.4375 -2.890625 7.578125 -3.15625 7.578125 -3.5 C 7.578125 -3.84375 7.414062 -4.128906 7.09375 -4.359375 C 6.769531 -4.585938 6.367188 -4.757812 5.890625 -4.875 C 5.410156 -4.988281 4.882812 -5.140625 4.3125 -5.328125 C 3.75 -5.515625 3.226562 -5.71875 2.75 -5.9375 C 2.269531 -6.164062 1.867188 -6.519531 1.546875 -7 C 1.222656 -7.488281 1.0625 -8.078125 1.0625 -8.765625 C 1.0625 -9.890625 1.507812 -10.789062 2.40625 -11.46875 C 3.300781 -12.144531 4.488281 -12.484375 5.96875 -12.484375 Z M 5.96875 -12.484375 "/></g></g></g><g fill="#4fb6a9" fill-opacity="1"><g transform="translate(267.13459, 36.616834)"><g><path d="M 10.65625 -9.8125 L 6.9375 -9.8125 L 6.9375 0 L 3.8125 0 L 3.8125 -9.8125 L 0.125 -9.8125 L 0.125 -12.359375 L 10.65625 -12.359375 Z M 10.65625 -9.8125 "/></g></g></g><g fill="#4fb6a9" fill-opacity="1"><g transform="translate(277.555458, 36.616834)"><g><path d="M 1.078125 -7.625 C 1.347656 -7.894531 1.695312 -8.03125 2.125 -8.03125 C 2.5625 -8.03125 2.914062 -7.894531 3.1875 -7.625 C 3.46875 -7.351562 3.609375 -7 3.609375 -6.5625 C 3.609375 -6.132812 3.46875 -5.78125 3.1875 -5.5 C 2.914062 -5.226562 2.5625 -5.09375 2.125 -5.09375 C 1.695312 -5.09375 1.347656 -5.226562 1.078125 -5.5 C 0.804688 -5.78125 0.671875 -6.132812 0.671875 -6.5625 C 0.671875 -7 0.804688 -7.351562 1.078125 -7.625 Z M 1.078125 -2.390625 C 1.347656 -2.660156 1.695312 -2.796875 2.125 -2.796875 C 2.5625 -2.796875 2.914062 -2.660156 3.1875 -2.390625 C 3.46875 -2.117188 3.609375 -1.765625 3.609375 -1.328125 C 3.609375 -0.898438 3.46875 -0.546875 3.1875 -0.265625 C 2.914062 0.00390625 2.5625 0.140625 2.125 0.140625 C 1.695312 0.140625 1.347656 0.00390625 1.078125 -0.265625 C 0.804688 -0.546875 0.671875 -0.898438 0.671875 -1.328125 C 0.671875 -1.765625 0.804688 -2.117188 1.078125 -2.390625 Z M 1.078125 -2.390625 "/></g></g></g><path fill="#ffffff" d="M 21.183594 19.425781 L 21.46875 19.648438 C 21.625 19.769531 21.800781 19.816406 21.996094 19.792969 C 22.191406 19.773438 22.351562 19.683594 22.480469 19.535156 C 22.601562 19.382812 22.652344 19.207031 22.628906 19.011719 C 22.605469 18.816406 22.519531 18.65625 22.363281 18.535156 L 22.085938 18.316406 C 21.929688 18.195312 21.757812 18.144531 21.558594 18.164062 C 21.363281 18.1875 21.199219 18.273438 21.078125 18.425781 C 20.953125 18.578125 20.898438 18.75 20.921875 18.945312 C 20.941406 19.140625 21.027344 19.300781 21.183594 19.425781 Z M 21.183594 19.425781 " fill-opacity="1" fill-rule="nonzero"/><path fill="#ffffff" d="M 19.058594 32.488281 L 18.789062 32.726562 C 18.640625 32.859375 18.5625 33.023438 18.554688 33.222656 C 18.542969 33.417969 18.605469 33.585938 18.742188 33.734375 C 18.875 33.875 19.042969 33.949219 19.238281 33.957031 C 19.433594 33.96875 19.605469 33.90625 19.753906 33.78125 L 20.019531 33.542969 C 20.164062 33.414062 20.246094 33.25 20.253906 33.054688 C 20.265625 32.859375 20.207031 32.6875 20.074219 32.539062 C 19.941406 32.394531 19.773438 32.316406 19.578125 32.304688 C 19.378906 32.296875 19.207031 32.355469 19.058594 32.488281 Z M 19.058594 32.488281 " fill-opacity="1" fill-rule="nonzero"/><path fill="#ffffff" d="M 21.492188 30.371094 L 21.226562 30.601562 C 21.078125 30.734375 20.996094 30.894531 20.984375 31.089844 C 20.96875 31.289062 21.027344 31.460938 21.160156 31.605469 C 21.292969 31.75 21.457031 31.832031 21.652344 31.84375 C 21.851562 31.855469 22.023438 31.796875 22.175781 31.671875 L 22.445312 31.433594 C 22.59375 31.304688 22.675781 31.140625 22.6875 30.945312 C 22.699219 30.746094 22.636719 30.578125 22.507812 30.429688 C 22.375 30.28125 22.210938 30.203125 22.011719 30.191406 C 21.8125 30.179688 21.640625 30.238281 21.492188 30.371094 Z M 21.492188 30.371094 " fill-opacity="1" fill-rule="nonzero"/><path fill="#ffffff" d="M 16.691406 34.769531 C 16.605469 34.859375 16.523438 34.953125 16.441406 35.042969 C 16.308594 35.191406 16.25 35.363281 16.261719 35.558594 C 16.277344 35.757812 16.355469 35.917969 16.503906 36.046875 C 16.65625 36.179688 16.828125 36.238281 17.027344 36.222656 C 17.226562 36.210938 17.390625 36.132812 17.519531 35.984375 C 17.597656 35.898438 17.671875 35.8125 17.75 35.730469 C 17.886719 35.585938 17.949219 35.414062 17.9375 35.21875 C 17.929688 35.019531 17.851562 34.855469 17.707031 34.722656 C 17.558594 34.59375 17.386719 34.53125 17.1875 34.539062 C 16.992188 34.546875 16.824219 34.625 16.691406 34.769531 Z M 16.691406 34.769531 " fill-opacity="1" fill-rule="nonzero"/><path fill="#ffffff" d="M 15.410156 41.097656 C 15.386719 41 15.371094 40.902344 15.359375 40.804688 C 15.332031 40.613281 15.242188 40.453125 15.082031 40.335938 C 14.925781 40.214844 14.75 40.167969 14.550781 40.195312 C 14.355469 40.21875 14.195312 40.308594 14.074219 40.464844 C 13.953125 40.621094 13.90625 40.796875 13.933594 40.992188 C 13.953125 41.128906 13.976562 41.265625 14.007812 41.402344 C 14.054688 41.589844 14.160156 41.738281 14.324219 41.839844 C 14.492188 41.945312 14.667969 41.980469 14.863281 41.945312 C 15.054688 41.902344 15.207031 41.796875 15.3125 41.632812 C 15.421875 41.46875 15.453125 41.289062 15.410156 41.097656 Z M 15.410156 41.097656 " fill-opacity="1" fill-rule="nonzero"/><path fill="#ffffff" d="M 14.851562 38.785156 C 15.03125 38.867188 15.210938 38.875 15.398438 38.808594 C 15.585938 38.742188 15.71875 38.621094 15.804688 38.441406 C 15.851562 38.347656 15.898438 38.25 15.949219 38.15625 C 16.042969 37.980469 16.058594 37.800781 16 37.613281 C 15.941406 37.425781 15.824219 37.285156 15.648438 37.195312 C 15.472656 37.101562 15.289062 37.085938 15.101562 37.144531 C 14.910156 37.203125 14.769531 37.316406 14.679688 37.492188 C 14.617188 37.609375 14.558594 37.726562 14.503906 37.839844 C 14.417969 38.019531 14.410156 38.199219 14.476562 38.386719 C 14.546875 38.570312 14.671875 38.703125 14.851562 38.785156 Z M 14.851562 38.785156 " fill-opacity="1" fill-rule="nonzero"/><path fill="#ffffff" d="M 16.636719 43.316406 C 16.523438 43.15625 16.367188 43.0625 16.171875 43.03125 C 15.972656 43 15.796875 43.039062 15.632812 43.15625 C 15.472656 43.273438 15.378906 43.425781 15.347656 43.621094 C 15.316406 43.8125 15.359375 43.992188 15.476562 44.148438 L 15.691406 44.441406 C 15.808594 44.597656 15.964844 44.691406 16.160156 44.71875 C 16.355469 44.746094 16.535156 44.707031 16.695312 44.59375 C 16.855469 44.476562 16.949219 44.320312 16.980469 44.125 C 17.007812 43.933594 16.964844 43.757812 16.847656 43.597656 Z M 16.636719 43.316406 " fill-opacity="1" fill-rule="nonzero"/><path fill="#ffffff" d="M 27.160156 23.214844 C 27.097656 23.089844 27.023438 22.96875 26.949219 22.851562 C 26.839844 22.683594 26.691406 22.582031 26.496094 22.539062 C 26.300781 22.496094 26.121094 22.53125 25.953125 22.636719 C 25.789062 22.742188 25.683594 22.890625 25.640625 23.082031 C 25.597656 23.273438 25.628906 23.453125 25.738281 23.617188 C 25.789062 23.699219 25.839844 23.785156 25.882812 23.867188 C 25.980469 24.039062 26.121094 24.152344 26.308594 24.210938 C 26.496094 24.269531 26.675781 24.257812 26.851562 24.171875 C 27.027344 24.082031 27.148438 23.945312 27.207031 23.757812 C 27.269531 23.570312 27.253906 23.390625 27.160156 23.214844 Z M 27.160156 23.214844 " fill-opacity="1" fill-rule="nonzero"/><path fill="#ffffff" d="M 24.792969 20.667969 L 24.511719 20.4375 C 24.359375 20.316406 24.183594 20.261719 23.984375 20.28125 C 23.789062 20.300781 23.625 20.386719 23.5 20.539062 C 23.375 20.691406 23.320312 20.863281 23.339844 21.058594 C 23.359375 21.253906 23.445312 21.414062 23.601562 21.539062 L 23.875 21.761719 C 24.03125 21.882812 24.207031 21.933594 24.402344 21.914062 C 24.597656 21.898438 24.757812 21.816406 24.886719 21.667969 C 25.015625 21.515625 25.066406 21.34375 25.050781 21.148438 C 25.03125 20.953125 24.945312 20.792969 24.792969 20.667969 Z M 24.792969 20.667969 " fill-opacity="1" fill-rule="nonzero"/><path fill="#ffffff" d="M 23.832031 28.195312 L 23.574219 28.4375 C 23.429688 28.570312 23.355469 28.734375 23.347656 28.929688 C 23.34375 29.128906 23.410156 29.296875 23.542969 29.441406 C 23.679688 29.582031 23.847656 29.65625 24.046875 29.664062 C 24.242188 29.667969 24.414062 29.605469 24.558594 29.472656 L 24.824219 29.222656 C 24.96875 29.085938 25.042969 28.921875 25.046875 28.726562 C 25.050781 28.53125 24.984375 28.359375 24.847656 28.21875 C 24.710938 28.074219 24.542969 28.003906 24.34375 28 C 24.148438 27.992188 23.976562 28.058594 23.832031 28.195312 Z M 23.832031 28.195312 " fill-opacity="1" fill-rule="nonzero"/><path fill="#ffffff" d="M 26.730469 25.632812 C 26.558594 25.542969 26.375 25.523438 26.183594 25.578125 C 25.996094 25.636719 25.851562 25.75 25.757812 25.925781 C 25.710938 26.015625 25.660156 26.101562 25.601562 26.191406 C 25.496094 26.359375 25.46875 26.535156 25.511719 26.726562 C 25.558594 26.917969 25.664062 27.066406 25.832031 27.171875 C 26 27.273438 26.179688 27.300781 26.371094 27.253906 C 26.566406 27.210938 26.714844 27.109375 26.820312 26.945312 C 26.894531 26.828125 26.960938 26.714844 27.027344 26.597656 C 27.121094 26.421875 27.136719 26.242188 27.082031 26.054688 C 27.023438 25.867188 26.90625 25.726562 26.730469 25.632812 Z M 26.730469 25.632812 " fill-opacity="1" fill-rule="nonzero"/><path fill="#ffffff" d="M 21.1875 16.417969 C 21.261719 16.238281 21.261719 16.054688 21.183594 15.875 C 21.105469 15.695312 20.976562 15.566406 20.792969 15.492188 C 20.609375 15.417969 20.425781 15.417969 20.242188 15.496094 C 20.058594 15.570312 19.929688 15.703125 19.855469 15.882812 C 19.796875 16.027344 19.75 16.175781 19.710938 16.324219 C 19.667969 16.515625 19.695312 16.695312 19.800781 16.863281 C 19.902344 17.03125 20.050781 17.136719 20.246094 17.179688 C 20.4375 17.222656 20.617188 17.195312 20.785156 17.089844 C 20.953125 16.988281 21.0625 16.84375 21.109375 16.652344 C 21.128906 16.574219 21.15625 16.496094 21.1875 16.417969 Z M 21.1875 16.417969 " fill-opacity="1" fill-rule="nonzero"/><g clip-path="url(#b4f9054949)"><path fill="#ffffff" d="M 23.460938 9.167969 C 24.339844 9.441406 25.269531 10.085938 25.496094 10.671875 C 25.914062 11.746094 24.816406 12.546875 24.183594 13.25 C 23.238281 14.296875 22.898438 15.699219 23.316406 16.828125 C 23.84375 18.242188 25.179688 18.90625 26.386719 19.414062 C 28.972656 20.507812 30.625 21.726562 31.375 23.09375 C 31.765625 22.96875 32.164062 22.90625 32.574219 22.90625 C 32.683594 22.90625 32.792969 22.914062 32.902344 22.925781 C 31.738281 20.132812 28.28125 18.671875 26.953125 18.109375 C 25.933594 17.679688 24.996094 17.21875 24.667969 16.335938 C 24.378906 15.558594 24.800781 14.699219 25.253906 14.195312 C 26.324219 13.007812 27.507812 11.890625 26.835938 10.160156 C 26.425781 9.105469 25.167969 8.226562 23.949219 7.835938 L 23.953125 5.773438 L 27.839844 4.027344 C 28.117188 3.90625 28.257812 3.695312 28.261719 3.394531 C 28.269531 3.097656 28.136719 2.882812 27.867188 2.746094 L 23.558594 0.582031 C 23.445312 0.527344 23.328125 0.5 23.203125 0.507812 C 23.078125 0.511719 22.964844 0.546875 22.855469 0.609375 C 22.75 0.675781 22.667969 0.761719 22.605469 0.871094 C 22.542969 0.976562 22.515625 1.09375 22.515625 1.214844 L 22.515625 7.617188 L 21.625 7.617188 C 20.738281 7.617188 20.582031 9.203125 21.355469 9.480469 C 21.769531 9.628906 22.464844 9.945312 22.480469 10.386719 C 22.527344 11.820312 20.25 12.640625 19.171875 13.074219 C 17.648438 13.6875 15.566406 14.527344 14.96875 16.027344 C 13.484375 19.78125 20.390625 19.988281 20.179688 23.402344 C 20.074219 25.082031 18.75 27.042969 16.339844 29.070312 C 13.605469 31.371094 10.609375 33.339844 7.84375 35.601562 C 5.355469 37.628906 3.253906 41.074219 5.496094 44.097656 C 5.613281 44.257812 5.769531 44.351562 5.964844 44.382812 C 6.164062 44.410156 6.339844 44.367188 6.5 44.25 C 6.660156 44.136719 6.753906 43.980469 6.785156 43.785156 C 6.816406 43.59375 6.773438 43.414062 6.65625 43.257812 C 5.003906 41.03125 6.753906 38.332031 8.757812 36.699219 C 11.53125 34.433594 14.53125 32.457031 17.273438 30.152344 C 20.023438 27.839844 21.484375 25.59375 21.613281 23.488281 C 21.765625 21.054688 20.019531 20.050781 18.617188 19.242188 C 17.832031 18.789062 15.824219 17.761719 16.308594 16.546875 C 16.890625 15.078125 19.101562 14.675781 20.40625 14.109375 C 22.191406 13.328125 23.96875 11.863281 23.917969 10.339844 C 23.902344 9.894531 23.75 9.507812 23.460938 9.167969 Z M 23.953125 2.375 L 25.882812 3.34375 L 23.953125 4.214844 Z M 23.953125 2.375 " fill-opacity="1" fill-rule="nonzero"/></g><path fill="#ffffff" d="M 28.261719 44.058594 C 26.6875 43.132812 24.929688 41.847656 24.578125 40.027344 C 24.253906 38.367188 25.054688 36.785156 26.105469 35.457031 L 26.105469 33.300781 C 24.398438 35.054688 22.621094 37.492188 23.167969 40.296875 C 23.71875 43.140625 26.550781 44.761719 28.519531 45.84375 C 28.347656 45.480469 28.261719 45.097656 28.261719 44.699219 Z M 28.261719 44.058594 " fill-opacity="1" fill-rule="nonzero"/><path fill="#ffffff" d="M 30.058594 26.820312 C 30.058594 27.148438 30.121094 27.464844 30.25 27.769531 C 30.378906 28.078125 30.558594 28.34375 30.796875 28.578125 C 31.03125 28.8125 31.304688 28.992188 31.613281 29.117188 C 31.921875 29.246094 32.242188 29.308594 32.574219 29.308594 C 32.90625 29.308594 33.230469 29.242188 33.535156 29.117188 C 33.84375 28.992188 34.117188 28.8125 34.351562 28.578125 C 34.589844 28.34375 34.769531 28.074219 34.898438 27.769531 C 35.023438 27.464844 35.089844 27.148438 35.089844 26.820312 C 35.089844 26.488281 35.023438 26.171875 34.898438 25.867188 C 34.769531 25.5625 34.589844 25.292969 34.351562 25.058594 C 34.117188 24.824219 33.84375 24.644531 33.535156 24.519531 C 33.226562 24.394531 32.90625 24.328125 32.574219 24.328125 C 32.242188 24.328125 31.917969 24.394531 31.613281 24.519531 C 31.304688 24.644531 31.03125 24.824219 30.796875 25.058594 C 30.558594 25.292969 30.378906 25.5625 30.25 25.867188 C 30.121094 26.171875 30.058594 26.488281 30.058594 26.820312 Z M 33.652344 26.820312 C 33.652344 26.960938 33.625 27.097656 33.570312 27.226562 C 33.515625 27.359375 33.4375 27.472656 33.335938 27.574219 C 33.234375 27.671875 33.117188 27.75 32.988281 27.804688 C 32.855469 27.859375 32.71875 27.886719 32.574219 27.886719 C 32.429688 27.886719 32.292969 27.859375 32.160156 27.804688 C 32.03125 27.75 31.914062 27.671875 31.8125 27.574219 C 31.710938 27.472656 31.632812 27.359375 31.578125 27.226562 C 31.523438 27.097656 31.496094 26.960938 31.496094 26.820312 C 31.496094 26.675781 31.523438 26.542969 31.578125 26.410156 C 31.632812 26.28125 31.710938 26.164062 31.8125 26.066406 C 31.914062 25.964844 32.03125 25.886719 32.160156 25.832031 C 32.292969 25.78125 32.429688 25.753906 32.574219 25.753906 C 32.71875 25.753906 32.855469 25.78125 32.988281 25.832031 C 33.117188 25.886719 33.234375 25.964844 33.335938 26.066406 C 33.4375 26.164062 33.515625 26.28125 33.570312 26.410156 C 33.625 26.542969 33.652344 26.675781 33.652344 26.820312 Z M 33.652344 26.820312 " fill-opacity="1" fill-rule="nonzero"/><g clip-path="url(#635e45ac6e)"><path fill="#ffffff" d="M 35.621094 30.730469 L 29.527344 30.730469 C 29.265625 30.730469 29.011719 30.78125 28.769531 30.878906 C 28.527344 30.980469 28.3125 31.121094 28.125 31.304688 C 27.941406 31.488281 27.796875 31.699219 27.695312 31.941406 C 27.59375 32.179688 27.542969 32.429688 27.542969 32.691406 L 27.542969 38.996094 C 27.542969 39.171875 27.578125 39.34375 27.648438 39.507812 C 27.714844 39.671875 27.8125 39.816406 27.941406 39.941406 C 28.066406 40.066406 28.214844 40.160156 28.378906 40.230469 C 28.542969 40.296875 28.714844 40.332031 28.894531 40.332031 L 29.699219 40.332031 L 29.699219 44.699219 C 29.699219 44.875 29.734375 45.042969 29.800781 45.203125 C 29.867188 45.367188 29.964844 45.507812 30.089844 45.632812 C 30.214844 45.757812 30.359375 45.851562 30.523438 45.917969 C 30.683594 45.988281 30.855469 46.019531 31.03125 46.019531 L 34.117188 46.019531 C 34.292969 46.019531 34.460938 45.988281 34.625 45.917969 C 34.789062 45.851562 34.933594 45.757812 35.058594 45.632812 C 35.183594 45.507812 35.28125 45.367188 35.347656 45.203125 C 35.414062 45.042969 35.449219 44.875 35.449219 44.699219 L 35.449219 40.101562 L 36.1875 40.101562 C 36.375 40.09375 36.554688 40.050781 36.726562 39.972656 C 36.894531 39.898438 37.046875 39.792969 37.179688 39.664062 C 37.308594 39.53125 37.414062 39.378906 37.484375 39.207031 C 37.558594 39.039062 37.597656 38.859375 37.605469 38.675781 L 37.605469 32.691406 C 37.605469 32.429688 37.554688 32.179688 37.453125 31.941406 C 37.351562 31.699219 37.207031 31.488281 37.023438 31.304688 C 36.835938 31.121094 36.621094 30.980469 36.378906 30.878906 C 36.136719 30.78125 35.882812 30.730469 35.621094 30.730469 Z M 36.167969 38.648438 C 36.160156 38.65625 36.152344 38.667969 36.140625 38.679688 L 35.449219 38.679688 L 35.449219 37.84375 C 35.449219 37.644531 35.378906 37.476562 35.238281 37.339844 C 35.097656 37.199219 34.929688 37.128906 34.730469 37.128906 C 34.53125 37.128906 34.363281 37.199219 34.222656 37.339844 C 34.082031 37.476562 34.011719 37.644531 34.011719 37.84375 L 34.011719 44.597656 L 31.136719 44.597656 L 31.136719 37.84375 C 31.136719 37.644531 31.066406 37.476562 30.925781 37.339844 C 30.785156 37.199219 30.617188 37.128906 30.417969 37.128906 C 30.21875 37.128906 30.050781 37.199219 29.910156 37.339844 C 29.769531 37.476562 29.699219 37.644531 29.699219 37.84375 L 29.699219 38.910156 L 28.980469 38.910156 L 28.980469 32.691406 C 28.980469 32.542969 29.035156 32.414062 29.140625 32.308594 C 29.25 32.207031 29.375 32.152344 29.527344 32.152344 L 35.621094 32.152344 C 35.773438 32.152344 35.898438 32.207031 36.007812 32.308594 C 36.113281 32.414062 36.167969 32.542969 36.167969 32.691406 Z M 36.167969 38.648438 " fill-opacity="1" fill-rule="nonzero"/></g></svg>