<svg xmlns="http://www.w3.org/2000/svg" xmlns:xlink="http://www.w3.org/1999/xlink" width="296" zoomAndPan="magnify" viewBox="0 0 222 41.25" height="55" preserveAspectRatio="xMidYMid meet" version="1.0"><defs><g/><clipPath id="b2564f0751"><path d="M 1.980469 0 L 220.015625 0 L 220.015625 40.511719 L 1.980469 40.511719 Z M 1.980469 0 " clip-rule="nonzero"/></clipPath><clipPath id="aa4ad445ad"><path d="M 2.242188 0.078125 L 42.757812 0.078125 L 42.757812 39.851562 L 2.242188 39.851562 Z M 2.242188 0.078125 " clip-rule="nonzero"/></clipPath></defs><g clip-path="url(#b2564f0751)"><path fill="#ffffff" d="M 1.980469 0 L 220.019531 0 L 220.019531 47.878906 L 1.980469 47.878906 Z M 1.980469 0 " fill-opacity="1" fill-rule="nonzero"/><path fill="#ffffff" d="M 1.980469 0 L 220.019531 0 L 220.019531 40.511719 L 1.980469 40.511719 Z M 1.980469 0 " fill-opacity="1" fill-rule="nonzero"/></g><g clip-path="url(#aa4ad445ad)"><path fill="#ffffff" d="M 26.535156 24.078125 L 24.347656 24.078125 C 23.851562 24.078125 23.449219 23.683594 23.449219 23.195312 C 23.449219 22.703125 23.851562 22.308594 24.347656 22.308594 L 26.535156 22.308594 C 27.03125 22.308594 27.429688 22.703125 27.429688 23.195312 C 27.429688 23.683594 27.03125 24.078125 26.535156 24.078125 Z M 22.972656 20.628906 C 22.746094 20.628906 22.515625 20.542969 22.339844 20.367188 C 21.988281 20.023438 21.988281 19.460938 22.339844 19.117188 L 23.882812 17.589844 C 24.234375 17.242188 24.800781 17.242188 25.152344 17.589844 C 25.503906 17.933594 25.503906 18.496094 25.152344 18.84375 L 23.609375 20.367188 C 23.433594 20.542969 23.203125 20.628906 22.972656 20.628906 Z M 21.308594 25.382812 L 21.308594 26.832031 L 17.742188 26.832031 L 17.742188 25.382812 C 16.925781 24.824219 16.390625 23.890625 16.390625 22.835938 C 16.390625 21.125 17.792969 19.738281 19.527344 19.738281 C 21.261719 19.738281 22.664062 21.125 22.664062 22.835938 C 22.664062 23.890625 22.128906 24.824219 21.308594 25.382812 Z M 19.855469 29.554688 L 19.199219 29.554688 C 18.394531 29.554688 17.742188 28.910156 17.742188 28.117188 L 21.308594 28.117188 C 21.308594 28.910156 20.660156 29.554688 19.855469 29.554688 Z M 15.445312 20.367188 L 13.902344 18.84375 C 13.550781 18.496094 13.550781 17.933594 13.902344 17.589844 C 14.25 17.242188 14.820312 17.242188 15.171875 17.589844 L 16.714844 19.117188 C 17.066406 19.460938 17.066406 20.023438 16.714844 20.367188 C 16.539062 20.542969 16.308594 20.628906 16.082031 20.628906 C 15.851562 20.628906 15.621094 20.542969 15.445312 20.367188 Z M 14.707031 24.078125 L 12.519531 24.078125 C 12.023438 24.078125 11.621094 23.683594 11.621094 23.195312 C 11.621094 22.703125 12.023438 22.308594 12.519531 22.308594 L 14.707031 22.308594 C 15.203125 22.308594 15.605469 22.703125 15.605469 23.195312 C 15.605469 23.683594 15.203125 24.078125 14.707031 24.078125 Z M 18.628906 16.101562 C 18.628906 15.613281 19.03125 15.214844 19.527344 15.214844 C 20.023438 15.214844 20.425781 15.613281 20.425781 16.101562 L 20.425781 18.257812 C 20.425781 18.75 20.023438 19.144531 19.527344 19.144531 C 19.03125 19.144531 18.628906 18.75 18.628906 18.257812 Z M 36.585938 12.441406 L 42.710938 6.398438 L 36.9375 5.773438 L 36.304688 0.078125 L 30.179688 6.121094 L 30.625 10.121094 L 30.570312 10.175781 C 27.570312 7.613281 23.679688 6.042969 19.410156 6.042969 C 9.964844 6.042969 2.28125 13.625 2.28125 22.945312 C 2.28125 27.460938 4.0625 31.707031 7.296875 34.902344 C 10.535156 38.09375 14.835938 39.851562 19.410156 39.851562 C 28.855469 39.851562 36.539062 32.269531 36.539062 22.945312 C 36.539062 19.65625 35.566406 16.59375 33.914062 13.992188 L 30.964844 16.902344 C 31.9375 18.707031 32.492188 20.761719 32.492188 22.945312 C 32.492188 30.066406 26.625 35.859375 19.410156 35.859375 C 15.917969 35.859375 12.632812 34.515625 10.160156 32.074219 C 7.6875 29.636719 6.328125 26.394531 6.328125 22.945312 C 6.328125 15.828125 12.199219 10.035156 19.410156 10.035156 C 22.5625 10.035156 25.449219 11.15625 27.710938 13 L 25.058594 15.613281 C 21.398438 12.863281 16.152344 13.128906 12.804688 16.429688 C 9.160156 20.027344 9.160156 25.867188 12.808594 29.464844 C 16.453125 33.0625 22.367188 33.0625 26.015625 29.460938 C 29.316406 26.203125 29.617188 21.121094 26.945312 17.515625 L 32.535156 12.003906 L 36.585938 12.441406 " fill-opacity="1" fill-rule="nonzero"/></g><g fill="#4fb6a9" fill-opacity="1"><g transform="translate(51.915919, 17.165846)"><g><path d="M 1.234375 -12.375 L 6.5625 -12.375 C 8.5 -12.375 10.078125 -11.800781 11.296875 -10.65625 C 12.515625 -9.507812 13.125 -8.019531 13.125 -6.1875 C 13.125 -4.363281 12.503906 -2.875 11.265625 -1.71875 C 10.035156 -0.570312 8.425781 0 6.4375 0 L 1.234375 0 Z M 4.375 -9.859375 L 4.375 -2.515625 L 6.625 -2.515625 C 7.59375 -2.515625 8.382812 -2.851562 9 -3.53125 C 9.625 -4.207031 9.9375 -5.085938 9.9375 -6.171875 C 9.9375 -7.253906 9.609375 -8.140625 8.953125 -8.828125 C 8.304688 -9.515625 7.484375 -9.859375 6.484375 -9.859375 Z M 4.375 -9.859375 "/></g></g></g><g fill="#4fb6a9" fill-opacity="1"><g transform="translate(65.121769, 17.165846)"><g><path d="M 10.921875 -9.890625 L 4.375 -9.890625 L 4.375 -7.4375 L 10.28125 -7.4375 L 10.28125 -4.96875 L 4.375 -4.96875 L 4.375 -2.46875 L 11.109375 -2.46875 L 11.109375 0 L 1.234375 0 L 1.234375 -12.375 L 10.921875 -12.375 Z M 10.921875 -9.890625 "/></g></g></g><g fill="#4fb6a9" fill-opacity="1"><g transform="translate(76.683515, 17.165846)"><g><path d="M 4.375 0 L 1.234375 0 L 1.234375 -12.375 L 4.375 -12.375 Z M 4.375 0 "/></g></g></g><g fill="#4fb6a9" fill-opacity="1"><g transform="translate(81.951707, 17.165846)"><g><path d="M 12.65625 0 L 9.875 0 L 4.1875 -7.609375 L 4.1875 0 L 1.234375 0 L 1.234375 -12.375 L 4.015625 -12.375 L 9.71875 -4.734375 L 9.71875 -12.375 L 12.65625 -12.375 Z M 12.65625 0 "/></g></g></g><g fill="#4fb6a9" fill-opacity="1"><g transform="translate(95.493446, 17.165846)"><g/></g></g><g fill="#4fb6a9" fill-opacity="1"><g transform="translate(99.241285, 17.165846)"><g><path d="M 9.453125 -2.28125 L 4.046875 -2.28125 L 3.140625 0 L -0.09375 0 L 5.25 -12.375 L 8.484375 -12.375 L 13.703125 0 L 10.34375 0 Z M 8.53125 -4.671875 L 6.765625 -9.25 L 4.96875 -4.671875 Z M 8.53125 -4.671875 "/></g></g></g><g fill="#4fb6a9" fill-opacity="1"><g transform="translate(112.500173, 17.165846)"><g><path d="M 9.296875 0 L 6.03125 -4.859375 L 4.375 -3.046875 L 4.375 0 L 1.234375 0 L 1.234375 -12.375 L 4.375 -12.375 L 4.375 -7.015625 L 9.125 -12.375 L 12.765625 -12.375 L 8.171875 -7.25 L 13.0625 0 Z M 9.296875 0 "/></g></g></g><g fill="#4fb6a9" fill-opacity="1"><g transform="translate(125.352454, 17.165846)"><g><path d="M 10.6875 -9.84375 L 6.96875 -9.84375 L 6.96875 0 L 3.8125 0 L 3.8125 -9.84375 L 0.125 -9.84375 L 0.125 -12.390625 L 10.6875 -12.390625 Z M 10.6875 -9.84375 "/></g></g></g><g fill="#4fb6a9" fill-opacity="1"><g transform="translate(135.800454, 17.165846)"><g><path d="M 12.375 -12.375 L 12.375 -5.203125 C 12.375 -3.554688 11.863281 -2.253906 10.84375 -1.296875 C 9.832031 -0.335938 8.460938 0.140625 6.734375 0.140625 C 4.992188 0.140625 3.609375 -0.335938 2.578125 -1.296875 C 1.546875 -2.253906 1.03125 -3.554688 1.03125 -5.203125 L 1.03125 -12.375 L 4.171875 -12.375 L 4.171875 -5.203125 C 4.171875 -4.367188 4.410156 -3.707031 4.890625 -3.21875 C 5.367188 -2.726562 5.988281 -2.484375 6.75 -2.484375 C 7.5 -2.484375 8.101562 -2.722656 8.5625 -3.203125 C 9.019531 -3.691406 9.25 -4.359375 9.25 -5.203125 L 9.25 -12.375 Z M 12.375 -12.375 "/></g></g></g><g fill="#4fb6a9" fill-opacity="1"><g transform="translate(148.847192, 17.165846)"><g><path d="M 10.921875 -9.890625 L 4.375 -9.890625 L 4.375 -7.4375 L 10.28125 -7.4375 L 10.28125 -4.96875 L 4.375 -4.96875 L 4.375 -2.46875 L 11.109375 -2.46875 L 11.109375 0 L 1.234375 0 L 1.234375 -12.375 L 10.921875 -12.375 Z M 10.921875 -9.890625 "/></g></g></g><g fill="#4fb6a9" fill-opacity="1"><g transform="translate(160.408943, 17.165846)"><g><path d="M 4.375 -2.640625 L 9.625 -2.640625 L 9.625 0 L 1.234375 0 L 1.234375 -12.375 L 4.375 -12.375 Z M 4.375 -2.640625 "/></g></g></g><g fill="#4fb6a9" fill-opacity="1"><g transform="translate(169.955342, 17.165846)"><g><path d="M 4.375 -2.640625 L 9.625 -2.640625 L 9.625 0 L 1.234375 0 L 1.234375 -12.375 L 4.375 -12.375 Z M 4.375 -2.640625 "/></g></g></g><g fill="#4fb6a9" fill-opacity="1"><g transform="translate(179.501742, 17.165846)"><g><path d="M 10.921875 -9.890625 L 4.375 -9.890625 L 4.375 -7.4375 L 10.28125 -7.4375 L 10.28125 -4.96875 L 4.375 -4.96875 L 4.375 -2.46875 L 11.109375 -2.46875 L 11.109375 0 L 1.234375 0 L 1.234375 -12.375 L 10.921875 -12.375 Z M 10.921875 -9.890625 "/></g></g></g><g fill="#4fb6a9" fill-opacity="1"><g transform="translate(191.063492, 17.165846)"><g><path d="M 5.984375 -12.515625 C 7.835938 -12.515625 9.46875 -12.054688 10.875 -11.140625 L 9.6875 -8.671875 C 9.039062 -9.054688 8.34375 -9.367188 7.59375 -9.609375 C 6.851562 -9.847656 6.226562 -9.96875 5.71875 -9.96875 C 4.8125 -9.96875 4.359375 -9.664062 4.359375 -9.0625 C 4.359375 -8.675781 4.582031 -8.363281 5.03125 -8.125 C 5.476562 -7.894531 6.023438 -7.691406 6.671875 -7.515625 C 7.316406 -7.347656 7.957031 -7.140625 8.59375 -6.890625 C 9.238281 -6.648438 9.785156 -6.257812 10.234375 -5.71875 C 10.679688 -5.175781 10.90625 -4.492188 10.90625 -3.671875 C 10.90625 -2.484375 10.4375 -1.554688 9.5 -0.890625 C 8.570312 -0.222656 7.390625 0.109375 5.953125 0.109375 C 4.929688 0.109375 3.914062 -0.0664062 2.90625 -0.421875 C 1.90625 -0.773438 1.035156 -1.257812 0.296875 -1.875 L 1.515625 -4.296875 C 2.140625 -3.753906 2.875 -3.304688 3.71875 -2.953125 C 4.570312 -2.609375 5.328125 -2.4375 5.984375 -2.4375 C 6.492188 -2.4375 6.890625 -2.523438 7.171875 -2.703125 C 7.453125 -2.890625 7.59375 -3.160156 7.59375 -3.515625 C 7.59375 -3.859375 7.429688 -4.144531 7.109375 -4.375 C 6.785156 -4.601562 6.378906 -4.769531 5.890625 -4.875 C 5.410156 -4.988281 4.890625 -5.140625 4.328125 -5.328125 C 3.765625 -5.523438 3.238281 -5.734375 2.75 -5.953125 C 2.269531 -6.179688 1.867188 -6.539062 1.546875 -7.03125 C 1.222656 -7.519531 1.0625 -8.101562 1.0625 -8.78125 C 1.0625 -9.914062 1.507812 -10.820312 2.40625 -11.5 C 3.3125 -12.175781 4.503906 -12.515625 5.984375 -12.515625 Z M 5.984375 -12.515625 "/></g></g></g><g fill="#4fb6a9" fill-opacity="1"><g transform="translate(51.915919, 36.317631)"><g><path d="M 5.984375 -12.515625 C 7.835938 -12.515625 9.46875 -12.054688 10.875 -11.140625 L 9.6875 -8.671875 C 9.039062 -9.054688 8.34375 -9.367188 7.59375 -9.609375 C 6.851562 -9.847656 6.226562 -9.96875 5.71875 -9.96875 C 4.8125 -9.96875 4.359375 -9.664062 4.359375 -9.0625 C 4.359375 -8.675781 4.582031 -8.363281 5.03125 -8.125 C 5.476562 -7.894531 6.023438 -7.691406 6.671875 -7.515625 C 7.316406 -7.347656 7.957031 -7.140625 8.59375 -6.890625 C 9.238281 -6.648438 9.785156 -6.257812 10.234375 -5.71875 C 10.679688 -5.175781 10.90625 -4.492188 10.90625 -3.671875 C 10.90625 -2.484375 10.4375 -1.554688 9.5 -0.890625 C 8.570312 -0.222656 7.390625 0.109375 5.953125 0.109375 C 4.929688 0.109375 3.914062 -0.0664062 2.90625 -0.421875 C 1.90625 -0.773438 1.035156 -1.257812 0.296875 -1.875 L 1.515625 -4.296875 C 2.140625 -3.753906 2.875 -3.304688 3.71875 -2.953125 C 4.570312 -2.609375 5.328125 -2.4375 5.984375 -2.4375 C 6.492188 -2.4375 6.890625 -2.523438 7.171875 -2.703125 C 7.453125 -2.890625 7.59375 -3.160156 7.59375 -3.515625 C 7.59375 -3.859375 7.429688 -4.144531 7.109375 -4.375 C 6.785156 -4.601562 6.378906 -4.769531 5.890625 -4.875 C 5.410156 -4.988281 4.890625 -5.140625 4.328125 -5.328125 C 3.765625 -5.523438 3.238281 -5.734375 2.75 -5.953125 C 2.269531 -6.179688 1.867188 -6.539062 1.546875 -7.03125 C 1.222656 -7.519531 1.0625 -8.101562 1.0625 -8.78125 C 1.0625 -9.914062 1.507812 -10.820312 2.40625 -11.5 C 3.3125 -12.175781 4.503906 -12.515625 5.984375 -12.515625 Z M 5.984375 -12.515625 "/></g></g></g><g fill="#4fb6a9" fill-opacity="1"><g transform="translate(62.947307, 36.317631)"><g><path d="M 14.828125 0 L 12.046875 0 L 12.03125 -8.046875 L 9.0625 -1.234375 L 7.015625 -1.234375 L 4.046875 -8.046875 L 4.046875 0 L 1.234375 0 L 1.234375 -12.390625 L 4.6875 -12.390625 L 8.046875 -5.015625 L 11.390625 -12.390625 L 14.828125 -12.390625 Z M 14.828125 0 "/></g></g></g><g fill="#4fb6a9" fill-opacity="1"><g transform="translate(78.681188, 36.317631)"><g><path d="M 9.453125 -2.28125 L 4.046875 -2.28125 L 3.140625 0 L -0.09375 0 L 5.25 -12.375 L 8.484375 -12.375 L 13.703125 0 L 10.34375 0 Z M 8.53125 -4.671875 L 6.765625 -9.25 L 4.96875 -4.671875 Z M 8.53125 -4.671875 "/></g></g></g><g fill="#4fb6a9" fill-opacity="1"><g transform="translate(91.940079, 36.317631)"><g><path d="M 8.6875 0 L 6.859375 -3.484375 L 4.375 -3.484375 L 4.375 0 L 1.234375 0 L 1.234375 -12.375 L 6.765625 -12.375 C 8.398438 -12.375 9.664062 -12 10.5625 -11.25 C 11.457031 -10.5 11.90625 -9.4375 11.90625 -8.0625 C 11.90625 -6.15625 11.160156 -4.828125 9.671875 -4.078125 L 12.265625 0 Z M 4.375 -5.953125 L 6.765625 -5.953125 C 7.453125 -5.953125 7.984375 -6.125 8.359375 -6.46875 C 8.734375 -6.8125 8.921875 -7.304688 8.921875 -7.953125 C 8.921875 -8.585938 8.734375 -9.066406 8.359375 -9.390625 C 7.984375 -9.722656 7.453125 -9.890625 6.765625 -9.890625 L 4.375 -9.890625 Z M 4.375 -5.953125 "/></g></g></g><g fill="#4fb6a9" fill-opacity="1"><g transform="translate(104.38575, 36.317631)"><g><path d="M 10.6875 -9.84375 L 6.96875 -9.84375 L 6.96875 0 L 3.8125 0 L 3.8125 -9.84375 L 0.125 -9.84375 L 0.125 -12.390625 L 10.6875 -12.390625 Z M 10.6875 -9.84375 "/></g></g></g><g fill="#4fb6a9" fill-opacity="1"><g transform="translate(114.833751, 36.317631)"><g><path d="M 10.921875 -9.890625 L 4.375 -9.890625 L 4.375 -7.4375 L 10.28125 -7.4375 L 10.28125 -4.96875 L 4.375 -4.96875 L 4.375 -2.46875 L 11.109375 -2.46875 L 11.109375 0 L 1.234375 0 L 1.234375 -12.375 L 10.921875 -12.375 Z M 10.921875 -9.890625 "/></g></g></g><g fill="#4fb6a9" fill-opacity="1"><g transform="translate(126.395496, 36.317631)"><g><path d="M 5.984375 -12.515625 C 7.835938 -12.515625 9.46875 -12.054688 10.875 -11.140625 L 9.6875 -8.671875 C 9.039062 -9.054688 8.34375 -9.367188 7.59375 -9.609375 C 6.851562 -9.847656 6.226562 -9.96875 5.71875 -9.96875 C 4.8125 -9.96875 4.359375 -9.664062 4.359375 -9.0625 C 4.359375 -8.675781 4.582031 -8.363281 5.03125 -8.125 C 5.476562 -7.894531 6.023438 -7.691406 6.671875 -7.515625 C 7.316406 -7.347656 7.957031 -7.140625 8.59375 -6.890625 C 9.238281 -6.648438 9.785156 -6.257812 10.234375 -5.71875 C 10.679688 -5.175781 10.90625 -4.492188 10.90625 -3.671875 C 10.90625 -2.484375 10.4375 -1.554688 9.5 -0.890625 C 8.570312 -0.222656 7.390625 0.109375 5.953125 0.109375 C 4.929688 0.109375 3.914062 -0.0664062 2.90625 -0.421875 C 1.90625 -0.773438 1.035156 -1.257812 0.296875 -1.875 L 1.515625 -4.296875 C 2.140625 -3.753906 2.875 -3.304688 3.71875 -2.953125 C 4.570312 -2.609375 5.328125 -2.4375 5.984375 -2.4375 C 6.492188 -2.4375 6.890625 -2.523438 7.171875 -2.703125 C 7.453125 -2.890625 7.59375 -3.160156 7.59375 -3.515625 C 7.59375 -3.859375 7.429688 -4.144531 7.109375 -4.375 C 6.785156 -4.601562 6.378906 -4.769531 5.890625 -4.875 C 5.410156 -4.988281 4.890625 -5.140625 4.328125 -5.328125 C 3.765625 -5.523438 3.238281 -5.734375 2.75 -5.953125 C 2.269531 -6.179688 1.867188 -6.539062 1.546875 -7.03125 C 1.222656 -7.519531 1.0625 -8.101562 1.0625 -8.78125 C 1.0625 -9.914062 1.507812 -10.820312 2.40625 -11.5 C 3.3125 -12.175781 4.503906 -12.515625 5.984375 -12.515625 Z M 5.984375 -12.515625 "/></g></g></g><g fill="#4fb6a9" fill-opacity="1"><g transform="translate(137.426883, 36.317631)"><g/></g></g><g fill="#4fb6a9" fill-opacity="1"><g transform="translate(141.174721, 36.317631)"><g><path d="M 11.3125 -10.359375 L 4.703125 -2.484375 L 11.421875 -2.484375 L 11.421875 0 L 0.5 0 L 0.5 -2.015625 L 7.125 -9.875 L 0.71875 -9.875 L 0.71875 -12.375 L 11.3125 -12.375 Z M 11.3125 -10.359375 "/></g></g></g><g fill="#4fb6a9" fill-opacity="1"><g transform="translate(152.754146, 36.317631)"><g><path d="M 4.375 0 L 1.234375 0 L 1.234375 -12.375 L 4.375 -12.375 Z M 4.375 0 "/></g></g></g><g fill="#4fb6a9" fill-opacity="1"><g transform="translate(158.022343, 36.317631)"><g><path d="M 10.921875 -9.890625 L 4.375 -9.890625 L 4.375 -7.4375 L 10.28125 -7.4375 L 10.28125 -4.96875 L 4.375 -4.96875 L 4.375 -2.46875 L 11.109375 -2.46875 L 11.109375 0 L 1.234375 0 L 1.234375 -12.375 L 10.921875 -12.375 Z M 10.921875 -9.890625 "/></g></g></g><g fill="#4fb6a9" fill-opacity="1"><g transform="translate(169.584094, 36.317631)"><g><path d="M 4.375 -2.640625 L 9.625 -2.640625 L 9.625 0 L 1.234375 0 L 1.234375 -12.375 L 4.375 -12.375 Z M 4.375 -2.640625 "/></g></g></g><g fill="#4fb6a9" fill-opacity="1"><g transform="translate(179.130494, 36.317631)"><g/></g></g><g fill="#4fb6a9" fill-opacity="1"><g transform="translate(182.878337, 36.317631)"><g><path d="M 4.375 0 L 1.234375 0 L 1.234375 -12.375 L 4.375 -12.375 Z M 4.375 0 "/></g></g></g><g fill="#4fb6a9" fill-opacity="1"><g transform="translate(188.146535, 36.317631)"><g><path d="M 5.984375 -12.515625 C 7.835938 -12.515625 9.46875 -12.054688 10.875 -11.140625 L 9.6875 -8.671875 C 9.039062 -9.054688 8.34375 -9.367188 7.59375 -9.609375 C 6.851562 -9.847656 6.226562 -9.96875 5.71875 -9.96875 C 4.8125 -9.96875 4.359375 -9.664062 4.359375 -9.0625 C 4.359375 -8.675781 4.582031 -8.363281 5.03125 -8.125 C 5.476562 -7.894531 6.023438 -7.691406 6.671875 -7.515625 C 7.316406 -7.347656 7.957031 -7.140625 8.59375 -6.890625 C 9.238281 -6.648438 9.785156 -6.257812 10.234375 -5.71875 C 10.679688 -5.175781 10.90625 -4.492188 10.90625 -3.671875 C 10.90625 -2.484375 10.4375 -1.554688 9.5 -0.890625 C 8.570312 -0.222656 7.390625 0.109375 5.953125 0.109375 C 4.929688 0.109375 3.914062 -0.0664062 2.90625 -0.421875 C 1.90625 -0.773438 1.035156 -1.257812 0.296875 -1.875 L 1.515625 -4.296875 C 2.140625 -3.753906 2.875 -3.304688 3.71875 -2.953125 C 4.570312 -2.609375 5.328125 -2.4375 5.984375 -2.4375 C 6.492188 -2.4375 6.890625 -2.523438 7.171875 -2.703125 C 7.453125 -2.890625 7.59375 -3.160156 7.59375 -3.515625 C 7.59375 -3.859375 7.429688 -4.144531 7.109375 -4.375 C 6.785156 -4.601562 6.378906 -4.769531 5.890625 -4.875 C 5.410156 -4.988281 4.890625 -5.140625 4.328125 -5.328125 C 3.765625 -5.523438 3.238281 -5.734375 2.75 -5.953125 C 2.269531 -6.179688 1.867188 -6.539062 1.546875 -7.03125 C 1.222656 -7.519531 1.0625 -8.101562 1.0625 -8.78125 C 1.0625 -9.914062 1.507812 -10.820312 2.40625 -11.5 C 3.3125 -12.175781 4.503906 -12.515625 5.984375 -12.515625 Z M 5.984375 -12.515625 "/></g></g></g><g fill="#4fb6a9" fill-opacity="1"><g transform="translate(199.177927, 36.317631)"><g><path d="M 10.6875 -9.84375 L 6.96875 -9.84375 L 6.96875 0 L 3.8125 0 L 3.8125 -9.84375 L 0.125 -9.84375 L 0.125 -12.390625 L 10.6875 -12.390625 Z M 10.6875 -9.84375 "/></g></g></g><g fill="#4fb6a9" fill-opacity="1"><g transform="translate(209.625933, 36.317631)"><g><path d="M 1.078125 -7.65625 C 1.347656 -7.925781 1.703125 -8.0625 2.140625 -8.0625 C 2.578125 -8.0625 2.929688 -7.925781 3.203125 -7.65625 C 3.484375 -7.382812 3.625 -7.03125 3.625 -6.59375 C 3.625 -6.15625 3.484375 -5.796875 3.203125 -5.515625 C 2.929688 -5.242188 2.578125 -5.109375 2.140625 -5.109375 C 1.703125 -5.109375 1.347656 -5.242188 1.078125 -5.515625 C 0.804688 -5.796875 0.671875 -6.15625 0.671875 -6.59375 C 0.671875 -7.03125 0.804688 -7.382812 1.078125 -7.65625 Z M 1.078125 -2.40625 C 1.347656 -2.675781 1.703125 -2.8125 2.140625 -2.8125 C 2.578125 -2.8125 2.929688 -2.675781 3.203125 -2.40625 C 3.484375 -2.132812 3.625 -1.78125 3.625 -1.34375 C 3.625 -0.90625 3.484375 -0.546875 3.203125 -0.265625 C 2.929688 0.00390625 2.578125 0.140625 2.140625 0.140625 C 1.703125 0.140625 1.347656 0.00390625 1.078125 -0.265625 C 0.804688 -0.546875 0.671875 -0.90625 0.671875 -1.34375 C 0.671875 -1.78125 0.804688 -2.132812 1.078125 -2.40625 Z M 1.078125 -2.40625 "/></g></g></g></svg>